<mxfile host="Electron" modified="2023-08-14T14:39:54.804Z" agent="Mozilla/5.0 (Macintosh; Intel Mac OS X 10_15_7) AppleWebKit/537.36 (KHTML, like Gecko) draw.io/21.6.8 Chrome/114.0.5735.289 Electron/25.5.0 Safari/537.36" etag="X4BlbjVEcOtGb8JuwBlK" version="21.6.8" type="device">
  <diagram name="Seite-1" id="wuMLF0OxSPpwG6tJzxKC">
    <mxGraphModel dx="2229" dy="1671" grid="1" gridSize="10" guides="1" tooltips="1" connect="1" arrows="1" fold="1" page="1" pageScale="1" pageWidth="1169" pageHeight="827" math="0" shadow="0">
      <root>
        <mxCell id="0" />
        <mxCell id="1" parent="0" />
        <mxCell id="IPLzQBMhlxklqPSGCdYf-10" value="" style="group" parent="1" vertex="1" connectable="0">
          <mxGeometry x="1100" y="268.14" width="160.11" height="82.48" as="geometry" />
        </mxCell>
        <mxCell id="IPLzQBMhlxklqPSGCdYf-11" value="" style="sketch=0;outlineConnect=0;fontColor=#232F3E;gradientColor=none;fillColor=#232F3D;strokeColor=none;dashed=0;verticalLabelPosition=bottom;verticalAlign=top;align=center;html=1;fontSize=12;fontStyle=0;aspect=fixed;pointerEvents=1;shape=mxgraph.aws4.user;" parent="IPLzQBMhlxklqPSGCdYf-10" vertex="1">
          <mxGeometry x="122.25645883568718" y="22.06084921430959" width="19.303243062520895" height="19.303243062520895" as="geometry" />
        </mxCell>
        <mxCell id="IPLzQBMhlxklqPSGCdYf-4" value="" style="shape=mxgraph.signs.transportation.truck_1;html=1;pointerEvents=1;fillColor=default;strokeColor=default;verticalLabelPosition=bottom;verticalAlign=top;align=center;strokeWidth=2;shadow=0;flipH=1;" parent="IPLzQBMhlxklqPSGCdYf-10" vertex="1">
          <mxGeometry width="160.10999999999996" height="82.47999999999999" as="geometry" />
        </mxCell>
        <mxCell id="IPLzQBMhlxklqPSGCdYf-5" value="" style="outlineConnect=0;dashed=0;verticalLabelPosition=bottom;verticalAlign=top;align=center;html=1;shape=mxgraph.aws3.hardware_board;fillColor=#000000;gradientColor=none;" parent="IPLzQBMhlxklqPSGCdYf-10" vertex="1">
          <mxGeometry x="63.242438856355434" y="5.3221798729522085" width="33.63431450223906" height="40.23347375459712" as="geometry" />
        </mxCell>
        <mxCell id="IPLzQBMhlxklqPSGCdYf-8" value="" style="shape=image;verticalLabelPosition=bottom;labelBackgroundColor=default;verticalAlign=top;aspect=fixed;imageAspect=0;image=data:image/svg+xml,PHN2ZyB4bWxucz0iaHR0cDovL3d3dy53My5vcmcvMjAwMC9zdmciIHZpZXdCb3g9IjAgMCAxMDAgMTI1IiB4bWw6c3BhY2U9InByZXNlcnZlIj4mI3hhOyAgPGcgdHJhbnNmb3JtPSJ0cmFuc2xhdGUoMCAxNCkiPiYjeGE7ICAgIDxwYXRoIGQ9Ik01MS4yNjMgMjMuMzMzYzIuNTQ5LjYxNSA2LjUwMiAyLjQ1OCA3LjkzIDYuMjY1LjgzIDIuMjA5Ljc3NCA3LjA2Mi41ODYgMTAuNzQ3LS42NzQgMy45MDYtMi4yMzQgNi43NTQtNC42NjIgOC40ODItMy4yNSAyLjMxMy03LjMyMiAyLjA3NS05LjI4OCAxLjc3NC0yLjY4My0xLjMxMi00LjI2Ni01LjMwMS00Ljk1My04LjU1Ny0uODA0LTMuODA1LS4zMTYtNS43ODktLjMxNi01Ljc4OVYzNC44M2MtLjcxNC0xLjkwMy0uMDc5LTcuNTMzLjg3Mi05LjQzNy45NTEtMS45MDMgMy45NzQtMS45MzQgNC44MzctMi42MTcgMS4yMDgtLjk1NCAyLjgzMy01LjA4IDMuMzA5LTYuMzM0LTkuOTA2IDEuMjQ1LTEyLjM3OSA5LjU5LTEyLjg2MiAxMS44MDYtMS4xODEgMS4xMjYtMi4xNTEgMy4xNDgtMS4xNjMgNS4zMzYtLjM1NC40NTUtLjcxIDEuMDc4LS44NTIgMS44NjEtLjExOC42NTQtLjExNCAxLjYxMy40NDMgMi43MjktLjk4NCAxLjkwNi0zLjA4NCA3LjIzNi0uNzg0IDE0LjgwOSAyLjIxOCA3LjMwOCAxLjI3NSA5LjI2My42NjYgMTAuMTU0LTEuNDkzLjU4OC02LjQxNyAyLjgxNi04LjQ4MiA3LjM1NC0uNTkxLjI2Mi0xLjI0NC42ODQtMS44NTkgMS4yODJWODMuNjVoNTAuNzcxVjYzLjE3Yy0xLjQ3OS0yLjE3Mi0zLjIwNC00LjUyMS00LjcwMy02LjA2OC0uNDEyLTIuMzY5LTIuNDUzLTE0LjI1NS0yLjUyMi0xOC40MDgtLjAzOS0yLjM0MS0uMTI5LTcuODI0LTIuMTI5LTEyLjc5MS0yLjMyOC01Ljc4Ny02LjU5NS05LjA2NC0xMi4zOTItOS41NTVoLTMuMTRjLTMuNjk3IDYuMDczLS4xMzMgNi43ODYuNjkzIDYuOTg1em05LjI3OCAzNy43MDZjMCAuNjM5LjI0OCAxLjIxNS42NDkgMS42NDYtLjM0OC4zMDctLjU3MS43NDgtLjU3MSAxLjI0OCAwIC4yMjcuMDQ3LjQ0LjEyOS42NDEtLjUxOS40ODQtLjg0MiAxLjE3Mi0uODQyIDEuOTM4IDAgLjQ2NS4xMi45LjMyOSAxLjI4MS0uNTM4LjQzOC0uODg3IDEuMTA0LS44ODcgMS44NTIgMCAuMzgzLjA5NC43NDQuMjU2IDEuMDY0LTIuMzEzIDEuMDY4LTQuOTM0IDQuMzI2LTQuOTM0IDQuMzI2LTUuMjMyLjM5Ni0xNy4yMDgtMS41MDgtMTcuNjg0LTUuNDczLS40NzctMy45NjUgMTAuODY0LTEyLjQ0OSAxMC44NjQtMTIuNDQ5IDAtLjQ4OC0uMjcyLTIuNzAzLS40OC00LjMyNC4yOTYuMDE2LjYwNi4wMjUuOTI4LjAyNSAyLjM1NCAwIDUuMzQxLS40NzYgNy45NjgtMi4zMzggMS4yNTgtLjg5MiAyLjMxNC0yLjAyMyAzLjE3NC0zLjM4LjE3NSA1LjEwNCAxLjMzOCAxMS4yODYgMS4zMzggMTEuMjg2bC43NjcuNjk3Yy0uNjA4LjQ0MS0xLjAwNCAxLjE1My0xLjAwNCAxLjk2eiIvPiYjeGE7ICAgIDxwYXRoIGQ9Ik04OC40MjYgOTIuNzIzYy4yNzEtLjE3OC41MzEtLjM4Ny43NzEtLjYyNyAxLjg2Mi0xLjg2MSAxLjg2Mi00Ljg4MSAwLTYuNzQtLjUyMy0uNTI0LTEuMTQtLjg5Ni0xLjc5NC0xLjEyNS43OTctMi42NzYgMi4yNjUtOS44NDgtLjY0Ny0yMC4yMDEgMS43ODUtLjMwNSAzLjE0Ni0xLjg1NCAzLjE0Ni0zLjcyNyAwLTEuMTM5LS41MDQtMi4xNTgtMS4yOTktMi44NTIgMS44My0xLjM2NSAzLjA4OC00LjE4OCAzLjA4OC03LjQ1MiAwLTMuMjYzLTEuMjU4LTYuMDg1LTMuMDg4LTcuNDUuNzk1LS42OTQgMS4yOTktMS43MTMgMS4yOTktMi44NTEgMC0xLjg3MS0xLjM1OS0zLjQyMS0zLjE0Ni0zLjcyNiAyLjU4Mi05LjE4MiAxLjcyNC0xNS44Ni45MzgtMTkuMTIxLjU0Ny0uMjMxIDEuMDU5LS41NjYgMS41MDUtMS4wMTIgMS44NjItMS44NjIgMS44NjItNC44OCAwLTYuNzQyLS4yMzktLjI0LS41LS40NDktLjc3Mi0uNjI3LjQyNC0uMi44MjYtLjQ3NyAxLjE4Ni0uODM1IDEuNDk0LTEuNDkzIDEuNjI4LTMuNzgyLjI5OS01LjExLTEuMzI3LTEuMzI5LTMuNjE2LTEuMTk1LTUuMTEuMjk4LS4zNTYuMzU3LS42MzMuNzYxLS44MzQgMS4xODUtLjE3OS0uMjc0LS4zODgtLjUzMy0uNjI3LS43NzMtMS44Ni0xLjg2MS00Ljg4MS0xLjg2MS02Ljc0MSAwLS4zNDEuMzQtLjYxMy43Mi0uODMgMS4xMjMtMS45MzktLjY5Mi02LjEwMy0xLjY1NC0xMS45NTEtLjE4OS0uNTYtMS4zOTQtMS45MTgtMi4zOC0zLjUxMi0yLjM4LTEuMTQgMC0yLjE1Ni41MDItMi44NTMgMS4yOTdDNTYuMDg2IDEuMjU3IDUzLjI2NSAwIDUwIDBjLTMuMjYzIDAtNi4wODQgMS4yNTctNy40NSAzLjA4Ni0uNjkzLS43OTQtMS43MTQtMS4yOTYtMi44NTEtMS4yOTYtMS41OTMgMC0yLjk1NC45ODYtMy41MTIgMi4zOC01Ljg1Mi0xLjQ2NC0xMC4wMTMtLjUwMy0xMS45NTIuMTg5LS4yMTUtLjQwMy0uNDktLjc4My0uODMtMS4xMjMtMS44NjItMS44NjEtNC44OC0xLjg2MS02Ljc0MiAwLS4yNC4yNC0uNDQ5LjUtLjYyNi43NzMtLjItLjQyNC0uNDc5LS44MjgtLjgzNC0xLjE4NS0xLjQ5NC0xLjQ5NC0zLjc4Mi0xLjYyNy01LjExMS0uMjk4LTEuMzI4IDEuMzI5LTEuMTkzIDMuNjE3LjMgNS4xMS4zNTYuMzU4Ljc2MS42MzUgMS4xODUuODM1LS4yNzUuMTc5LS41MzQuMzg3LS43NzUuNjI4LTEuODYgMS44NjEtMS44NiA0Ljg4IDAgNi43NDIuNDQ2LjQ0NS45NTguNzgzIDEuNTA1IDEuMDE0LS43ODQgMy4yNjItMS42NDUgOS45MzkuOTM4IDE5LjExOS0xLjc4NS4zMDUtMy4xNDYgMS44NTUtMy4xNDYgMy43MjYgMCAxLjEzOC41MDIgMi4xNTcgMS4yOTggMi44NTFDOS41NjUgNDMuOTE2IDguMzEgNDYuNzM5IDguMzEgNTBjMCAzLjI2NCAxLjI1NyA2LjA4NSAzLjA4NyA3LjQ1MS0uNzk0LjY5My0xLjI5OCAxLjcxMy0xLjI5OCAyLjg1MiAwIDEuODcxIDEuMzU5IDMuNDIyIDMuMTQ2IDMuNzI3LTIuOTE0IDEwLjM1NS0xLjQ0NiAxNy41MjUtLjY0OCAyMC4yMDMtLjY1NC4yMjktMS4yNzEuNjAxLTEuNzk1IDEuMTIzLTEuODYgMS44NjEtMS44NiA0Ljg4MSAwIDYuNzQyLjI0LjIzOC41LjQ0Ny43NzMuNjI3LS40MjQuMTk5LS44MjcuNDc4LTEuMTg1LjgzNC0xLjQ5MyAxLjQ5NC0xLjYyOCAzLjc4MS0uMyA1LjEwOSAxLjMyOSAxLjMzIDMuNjE3IDEuMTk1IDUuMTExLS4yOTkuMzU2LS4zNTUuNjM0LS43Ni44MzQtMS4xODQuMTc4LjI3Mi4zODcuNTMyLjYyNy43NzEgMS44NjEgMS44NjIgNC44OCAxLjg2MiA2Ljc0MiAwIC42MjUtLjYyMyAxLjAzNS0xLjM3OSAxLjIzOS0yLjE3OSAyLjA4My42NzEgNi4wNzQgMS40MjEgMTEuNTQzLjA1Mi41NTggMS4zOTYgMS45MTggMi4zODEgMy41MTIgMi4zODEgMS4xMzcgMCAyLjE1Ny0uNTAyIDIuODUxLTEuMjk3IDEuMzY2IDEuODMxIDQuMTg4IDMuMDg3IDcuNDUgMy4wODcgMy4yNjQgMCA2LjA4NS0xLjI1NiA3LjQ1MS0zLjA4Ni42OTMuNzk1IDEuNzEzIDEuMjk3IDIuODUxIDEuMjk3IDEuNTk1IDAgMi45NTUtLjk4NCAzLjUxMy0yLjM4MSA1LjQ3IDEuMzY5IDkuNDYxLjYxOSAxMS41NDMtLjA1MS4yMDUuNzk5LjYxNSAxLjU1NSAxLjI0IDIuMTc4IDEuODYgMS44NjMgNC44NzkgMS44NjMgNi43MzkgMCAuMjQtLjIzOC40NDktLjQ5OC42MjctLjc3MS4yMDEuNDI0LjQ3OS44MjguODM0IDEuMTg1IDEuNDk0IDEuNDk0IDMuNzgzIDEuNjI5IDUuMTExLjI5OSAxLjMyOS0xLjMyOCAxLjE5NC0zLjYxNC0uMy01LjEwOC0uMzU2LS4zNjMtLjc1Ny0uNjQtMS4xODItLjgzOXptLTkuNzg2LTUuNzc0SDIxLjQ5NVYxMy4yNzNINzguNjR2NzMuNjc2eiIvPiYjeGE7ICA8L2c+JiN4YTs8L3N2Zz4=;" parent="IPLzQBMhlxklqPSGCdYf-10" vertex="1">
          <mxGeometry x="9.192214950051667" width="40.71145882090716" height="50.88702552100746" as="geometry" />
        </mxCell>
        <mxCell id="OMtnE_BQ5lBE1DZF3D4d-35" style="edgeStyle=orthogonalEdgeStyle;rounded=0;orthogonalLoop=1;jettySize=auto;html=1;entryX=1;entryY=0.5;entryDx=0;entryDy=0;entryPerimeter=0;" edge="1" parent="1" source="OMtnE_BQ5lBE1DZF3D4d-1" target="OMtnE_BQ5lBE1DZF3D4d-32">
          <mxGeometry relative="1" as="geometry">
            <mxPoint x="590" y="304.65999999999997" as="targetPoint" />
          </mxGeometry>
        </mxCell>
        <mxCell id="OMtnE_BQ5lBE1DZF3D4d-1" value="" style="shape=image;verticalLabelPosition=bottom;labelBackgroundColor=default;verticalAlign=top;aspect=fixed;imageAspect=0;image=data:image/svg+xml,PHN2ZyB4bWxucz0iaHR0cDovL3d3dy53My5vcmcvMjAwMC9zdmciIHZpZXdCb3g9IjAgMCAxMDAgMTI1IiB4bWw6c3BhY2U9InByZXNlcnZlIj4mI3hhOyAgPGcgdHJhbnNmb3JtPSJ0cmFuc2xhdGUoMCAxNCkiPiYjeGE7ICAgIDxwYXRoIGQ9Ik01MS4yNjMgMjMuMzMzYzIuNTQ5LjYxNSA2LjUwMiAyLjQ1OCA3LjkzIDYuMjY1LjgzIDIuMjA5Ljc3NCA3LjA2Mi41ODYgMTAuNzQ3LS42NzQgMy45MDYtMi4yMzQgNi43NTQtNC42NjIgOC40ODItMy4yNSAyLjMxMy03LjMyMiAyLjA3NS05LjI4OCAxLjc3NC0yLjY4My0xLjMxMi00LjI2Ni01LjMwMS00Ljk1My04LjU1Ny0uODA0LTMuODA1LS4zMTYtNS43ODktLjMxNi01Ljc4OVYzNC44M2MtLjcxNC0xLjkwMy0uMDc5LTcuNTMzLjg3Mi05LjQzNy45NTEtMS45MDMgMy45NzQtMS45MzQgNC44MzctMi42MTcgMS4yMDgtLjk1NCAyLjgzMy01LjA4IDMuMzA5LTYuMzM0LTkuOTA2IDEuMjQ1LTEyLjM3OSA5LjU5LTEyLjg2MiAxMS44MDYtMS4xODEgMS4xMjYtMi4xNTEgMy4xNDgtMS4xNjMgNS4zMzYtLjM1NC40NTUtLjcxIDEuMDc4LS44NTIgMS44NjEtLjExOC42NTQtLjExNCAxLjYxMy40NDMgMi43MjktLjk4NCAxLjkwNi0zLjA4NCA3LjIzNi0uNzg0IDE0LjgwOSAyLjIxOCA3LjMwOCAxLjI3NSA5LjI2My42NjYgMTAuMTU0LTEuNDkzLjU4OC02LjQxNyAyLjgxNi04LjQ4MiA3LjM1NC0uNTkxLjI2Mi0xLjI0NC42ODQtMS44NTkgMS4yODJWODMuNjVoNTAuNzcxVjYzLjE3Yy0xLjQ3OS0yLjE3Mi0zLjIwNC00LjUyMS00LjcwMy02LjA2OC0uNDEyLTIuMzY5LTIuNDUzLTE0LjI1NS0yLjUyMi0xOC40MDgtLjAzOS0yLjM0MS0uMTI5LTcuODI0LTIuMTI5LTEyLjc5MS0yLjMyOC01Ljc4Ny02LjU5NS05LjA2NC0xMi4zOTItOS41NTVoLTMuMTRjLTMuNjk3IDYuMDczLS4xMzMgNi43ODYuNjkzIDYuOTg1em05LjI3OCAzNy43MDZjMCAuNjM5LjI0OCAxLjIxNS42NDkgMS42NDYtLjM0OC4zMDctLjU3MS43NDgtLjU3MSAxLjI0OCAwIC4yMjcuMDQ3LjQ0LjEyOS42NDEtLjUxOS40ODQtLjg0MiAxLjE3Mi0uODQyIDEuOTM4IDAgLjQ2NS4xMi45LjMyOSAxLjI4MS0uNTM4LjQzOC0uODg3IDEuMTA0LS44ODcgMS44NTIgMCAuMzgzLjA5NC43NDQuMjU2IDEuMDY0LTIuMzEzIDEuMDY4LTQuOTM0IDQuMzI2LTQuOTM0IDQuMzI2LTUuMjMyLjM5Ni0xNy4yMDgtMS41MDgtMTcuNjg0LTUuNDczLS40NzctMy45NjUgMTAuODY0LTEyLjQ0OSAxMC44NjQtMTIuNDQ5IDAtLjQ4OC0uMjcyLTIuNzAzLS40OC00LjMyNC4yOTYuMDE2LjYwNi4wMjUuOTI4LjAyNSAyLjM1NCAwIDUuMzQxLS40NzYgNy45NjgtMi4zMzggMS4yNTgtLjg5MiAyLjMxNC0yLjAyMyAzLjE3NC0zLjM4LjE3NSA1LjEwNCAxLjMzOCAxMS4yODYgMS4zMzggMTEuMjg2bC43NjcuNjk3Yy0uNjA4LjQ0MS0xLjAwNCAxLjE1My0xLjAwNCAxLjk2eiIvPiYjeGE7ICAgIDxwYXRoIGQ9Ik04OC40MjYgOTIuNzIzYy4yNzEtLjE3OC41MzEtLjM4Ny43NzEtLjYyNyAxLjg2Mi0xLjg2MSAxLjg2Mi00Ljg4MSAwLTYuNzQtLjUyMy0uNTI0LTEuMTQtLjg5Ni0xLjc5NC0xLjEyNS43OTctMi42NzYgMi4yNjUtOS44NDgtLjY0Ny0yMC4yMDEgMS43ODUtLjMwNSAzLjE0Ni0xLjg1NCAzLjE0Ni0zLjcyNyAwLTEuMTM5LS41MDQtMi4xNTgtMS4yOTktMi44NTIgMS44My0xLjM2NSAzLjA4OC00LjE4OCAzLjA4OC03LjQ1MiAwLTMuMjYzLTEuMjU4LTYuMDg1LTMuMDg4LTcuNDUuNzk1LS42OTQgMS4yOTktMS43MTMgMS4yOTktMi44NTEgMC0xLjg3MS0xLjM1OS0zLjQyMS0zLjE0Ni0zLjcyNiAyLjU4Mi05LjE4MiAxLjcyNC0xNS44Ni45MzgtMTkuMTIxLjU0Ny0uMjMxIDEuMDU5LS41NjYgMS41MDUtMS4wMTIgMS44NjItMS44NjIgMS44NjItNC44OCAwLTYuNzQyLS4yMzktLjI0LS41LS40NDktLjc3Mi0uNjI3LjQyNC0uMi44MjYtLjQ3NyAxLjE4Ni0uODM1IDEuNDk0LTEuNDkzIDEuNjI4LTMuNzgyLjI5OS01LjExLTEuMzI3LTEuMzI5LTMuNjE2LTEuMTk1LTUuMTEuMjk4LS4zNTYuMzU3LS42MzMuNzYxLS44MzQgMS4xODUtLjE3OS0uMjc0LS4zODgtLjUzMy0uNjI3LS43NzMtMS44Ni0xLjg2MS00Ljg4MS0xLjg2MS02Ljc0MSAwLS4zNDEuMzQtLjYxMy43Mi0uODMgMS4xMjMtMS45MzktLjY5Mi02LjEwMy0xLjY1NC0xMS45NTEtLjE4OS0uNTYtMS4zOTQtMS45MTgtMi4zOC0zLjUxMi0yLjM4LTEuMTQgMC0yLjE1Ni41MDItMi44NTMgMS4yOTdDNTYuMDg2IDEuMjU3IDUzLjI2NSAwIDUwIDBjLTMuMjYzIDAtNi4wODQgMS4yNTctNy40NSAzLjA4Ni0uNjkzLS43OTQtMS43MTQtMS4yOTYtMi44NTEtMS4yOTYtMS41OTMgMC0yLjk1NC45ODYtMy41MTIgMi4zOC01Ljg1Mi0xLjQ2NC0xMC4wMTMtLjUwMy0xMS45NTIuMTg5LS4yMTUtLjQwMy0uNDktLjc4My0uODMtMS4xMjMtMS44NjItMS44NjEtNC44OC0xLjg2MS02Ljc0MiAwLS4yNC4yNC0uNDQ5LjUtLjYyNi43NzMtLjItLjQyNC0uNDc5LS44MjgtLjgzNC0xLjE4NS0xLjQ5NC0xLjQ5NC0zLjc4Mi0xLjYyNy01LjExMS0uMjk4LTEuMzI4IDEuMzI5LTEuMTkzIDMuNjE3LjMgNS4xMS4zNTYuMzU4Ljc2MS42MzUgMS4xODUuODM1LS4yNzUuMTc5LS41MzQuMzg3LS43NzUuNjI4LTEuODYgMS44NjEtMS44NiA0Ljg4IDAgNi43NDIuNDQ2LjQ0NS45NTguNzgzIDEuNTA1IDEuMDE0LS43ODQgMy4yNjItMS42NDUgOS45MzkuOTM4IDE5LjExOS0xLjc4NS4zMDUtMy4xNDYgMS44NTUtMy4xNDYgMy43MjYgMCAxLjEzOC41MDIgMi4xNTcgMS4yOTggMi44NTFDOS41NjUgNDMuOTE2IDguMzEgNDYuNzM5IDguMzEgNTBjMCAzLjI2NCAxLjI1NyA2LjA4NSAzLjA4NyA3LjQ1MS0uNzk0LjY5My0xLjI5OCAxLjcxMy0xLjI5OCAyLjg1MiAwIDEuODcxIDEuMzU5IDMuNDIyIDMuMTQ2IDMuNzI3LTIuOTE0IDEwLjM1NS0xLjQ0NiAxNy41MjUtLjY0OCAyMC4yMDMtLjY1NC4yMjktMS4yNzEuNjAxLTEuNzk1IDEuMTIzLTEuODYgMS44NjEtMS44NiA0Ljg4MSAwIDYuNzQyLjI0LjIzOC41LjQ0Ny43NzMuNjI3LS40MjQuMTk5LS44MjcuNDc4LTEuMTg1LjgzNC0xLjQ5MyAxLjQ5NC0xLjYyOCAzLjc4MS0uMyA1LjEwOSAxLjMyOSAxLjMzIDMuNjE3IDEuMTk1IDUuMTExLS4yOTkuMzU2LS4zNTUuNjM0LS43Ni44MzQtMS4xODQuMTc4LjI3Mi4zODcuNTMyLjYyNy43NzEgMS44NjEgMS44NjIgNC44OCAxLjg2MiA2Ljc0MiAwIC42MjUtLjYyMyAxLjAzNS0xLjM3OSAxLjIzOS0yLjE3OSAyLjA4My42NzEgNi4wNzQgMS40MjEgMTEuNTQzLjA1Mi41NTggMS4zOTYgMS45MTggMi4zODEgMy41MTIgMi4zODEgMS4xMzcgMCAyLjE1Ny0uNTAyIDIuODUxLTEuMjk3IDEuMzY2IDEuODMxIDQuMTg4IDMuMDg3IDcuNDUgMy4wODcgMy4yNjQgMCA2LjA4NS0xLjI1NiA3LjQ1MS0zLjA4Ni42OTMuNzk1IDEuNzEzIDEuMjk3IDIuODUxIDEuMjk3IDEuNTk1IDAgMi45NTUtLjk4NCAzLjUxMy0yLjM4MSA1LjQ3IDEuMzY5IDkuNDYxLjYxOSAxMS41NDMtLjA1MS4yMDUuNzk5LjYxNSAxLjU1NSAxLjI0IDIuMTc4IDEuODYgMS44NjMgNC44NzkgMS44NjMgNi43MzkgMCAuMjQtLjIzOC40NDktLjQ5OC42MjctLjc3MS4yMDEuNDI0LjQ3OS44MjguODM0IDEuMTg1IDEuNDk0IDEuNDk0IDMuNzgzIDEuNjI5IDUuMTExLjI5OSAxLjMyOS0xLjMyOCAxLjE5NC0zLjYxNC0uMy01LjEwOC0uMzU2LS4zNjMtLjc1Ny0uNjQtMS4xODItLjgzOXptLTkuNzg2LTUuNzc0SDIxLjQ5NVYxMy4yNzNINzguNjR2NzMuNjc2eiIvPiYjeGE7ICA8L2c+JiN4YTs8L3N2Zz4=;" vertex="1" parent="1">
          <mxGeometry x="420" y="273.45" width="57.6" height="72" as="geometry" />
        </mxCell>
        <mxCell id="OMtnE_BQ5lBE1DZF3D4d-37" style="edgeStyle=orthogonalEdgeStyle;rounded=0;orthogonalLoop=1;jettySize=auto;html=1;entryX=1.01;entryY=0.455;entryDx=0;entryDy=0;entryPerimeter=0;" edge="1" parent="1" source="OMtnE_BQ5lBE1DZF3D4d-4" target="IPLzQBMhlxklqPSGCdYf-4">
          <mxGeometry relative="1" as="geometry" />
        </mxCell>
        <mxCell id="OMtnE_BQ5lBE1DZF3D4d-4" value="" style="sketch=0;pointerEvents=1;shadow=0;dashed=0;html=1;strokeColor=none;fillColor=#505050;labelPosition=center;verticalLabelPosition=bottom;verticalAlign=top;outlineConnect=0;align=center;shape=mxgraph.office.users.approver;" vertex="1" parent="1">
          <mxGeometry x="900" y="277.65999999999997" width="59" height="55" as="geometry" />
        </mxCell>
        <mxCell id="OMtnE_BQ5lBE1DZF3D4d-39" style="edgeStyle=orthogonalEdgeStyle;rounded=0;orthogonalLoop=1;jettySize=auto;html=1;entryX=0.668;entryY=0.002;entryDx=0;entryDy=0;entryPerimeter=0;" edge="1" parent="1" source="OMtnE_BQ5lBE1DZF3D4d-6" target="IPLzQBMhlxklqPSGCdYf-4">
          <mxGeometry relative="1" as="geometry">
            <Array as="points">
              <mxPoint x="1445" y="218.14" />
              <mxPoint x="1153" y="218.14" />
            </Array>
          </mxGeometry>
        </mxCell>
        <mxCell id="OMtnE_BQ5lBE1DZF3D4d-48" style="edgeStyle=orthogonalEdgeStyle;rounded=0;orthogonalLoop=1;jettySize=auto;html=1;entryX=1.008;entryY=0.412;entryDx=0;entryDy=0;entryPerimeter=0;" edge="1" parent="1" source="OMtnE_BQ5lBE1DZF3D4d-6" target="OMtnE_BQ5lBE1DZF3D4d-41">
          <mxGeometry relative="1" as="geometry" />
        </mxCell>
        <mxCell id="OMtnE_BQ5lBE1DZF3D4d-6" value="" style="sketch=0;outlineConnect=0;fillColor=#FF0000;strokeColor=#b85450;dashed=0;verticalLabelPosition=bottom;verticalAlign=top;align=center;html=1;fontSize=12;fontStyle=0;aspect=fixed;pointerEvents=1;shape=mxgraph.aws4.iot_thing_temperature_humidity_sensor;" vertex="1" parent="1">
          <mxGeometry x="1406" y="270.38" width="78" height="78" as="geometry" />
        </mxCell>
        <mxCell id="OMtnE_BQ5lBE1DZF3D4d-17" value="Action" style="text;html=1;align=left;verticalAlign=middle;resizable=0;points=[];autosize=1;strokeColor=none;fillColor=none;fontSize=17;" vertex="1" parent="1">
          <mxGeometry x="285" y="391.14" width="70" height="30" as="geometry" />
        </mxCell>
        <mxCell id="OMtnE_BQ5lBE1DZF3D4d-18" value="Owner mints artwork NFT" style="text;html=1;align=left;verticalAlign=middle;resizable=0;points=[];autosize=1;strokeColor=none;fillColor=none;fontSize=17;" vertex="1" parent="1">
          <mxGeometry x="365" y="391.14" width="220" height="30" as="geometry" />
        </mxCell>
        <mxCell id="OMtnE_BQ5lBE1DZF3D4d-19" value="Request" style="text;html=1;align=left;verticalAlign=middle;resizable=0;points=[];autosize=1;strokeColor=none;fillColor=none;fontSize=17;" vertex="1" parent="1">
          <mxGeometry x="285" y="436.14" width="90" height="30" as="geometry" />
        </mxCell>
        <mxCell id="OMtnE_BQ5lBE1DZF3D4d-20" value="POST /artworks&lt;br style=&quot;font-size: 17px;&quot;&gt;{&lt;br style=&quot;font-size: 17px;&quot;&gt;&lt;span style=&quot;white-space: pre; font-size: 17px;&quot;&gt;&#x9;&lt;/span&gt;&quot;objectId&quot;: TEST-123,&lt;br style=&quot;font-size: 17px;&quot;&gt;&lt;span style=&quot;white-space: pre; font-size: 17px;&quot;&gt;&#x9;&lt;/span&gt;&quot;carrier&quot;: 0x...,&lt;br style=&quot;font-size: 17px;&quot;&gt;&lt;span style=&quot;white-space: pre; font-size: 17px;&quot;&gt;&#x9;&lt;/span&gt;&quot;recipient&quot;: 0x...,&lt;br style=&quot;font-size: 17px;&quot;&gt;&lt;span style=&quot;white-space: pre; font-size: 17px;&quot;&gt;&#x9;&lt;/span&gt;&quot;logger&quot;: 0x...&lt;br style=&quot;font-size: 17px;&quot;&gt;}" style="text;html=1;align=left;verticalAlign=middle;resizable=0;points=[];autosize=1;strokeColor=none;fillColor=none;fontSize=17;" vertex="1" parent="1">
          <mxGeometry x="365" y="431.14" width="220" height="160" as="geometry" />
        </mxCell>
        <mxCell id="OMtnE_BQ5lBE1DZF3D4d-21" value="Owner requests the artwork&lt;br style=&quot;font-size: 17px;&quot;&gt;to be transported" style="text;html=1;align=left;verticalAlign=middle;resizable=0;points=[];autosize=1;strokeColor=none;fillColor=none;rounded=0;fontSize=17;" vertex="1" parent="1">
          <mxGeometry x="580" y="381.14" width="230" height="50" as="geometry" />
        </mxCell>
        <mxCell id="OMtnE_BQ5lBE1DZF3D4d-22" value="PATCH /artworks/id&lt;br style=&quot;font-size: 17px;&quot;&gt;{&lt;br style=&quot;font-size: 17px;&quot;&gt;&lt;span style=&quot;white-space: pre; font-size: 17px;&quot;&gt;&#x9;&lt;/span&gt;&quot;status&quot;: {&amp;nbsp;&lt;br style=&quot;font-size: 17px;&quot;&gt;&lt;span style=&quot;white-space: pre; font-size: 17px;&quot;&gt;&#x9;&lt;/span&gt;&lt;span style=&quot;white-space: pre; font-size: 17px;&quot;&gt;&#x9;&lt;/span&gt;&quot;requestedStatus&quot;: &lt;br style=&quot;font-size: 17px;&quot;&gt;&lt;span style=&quot;white-space: pre; font-size: 17px;&quot;&gt;&#x9;&lt;/span&gt;&lt;span style=&quot;white-space: pre; font-size: 17px;&quot;&gt;&#x9;&lt;/span&gt;&lt;span style=&quot;white-space: pre; font-size: 17px;&quot;&gt;&#x9;&lt;/span&gt;&quot;IN_TRANSIT&quot;&lt;br style=&quot;font-size: 17px;&quot;&gt;&lt;span style=&quot;white-space: pre; font-size: 17px;&quot;&gt;&#x9;&lt;/span&gt;}&lt;br style=&quot;font-size: 17px;&quot;&gt;}" style="text;html=1;align=left;verticalAlign=middle;resizable=0;points=[];autosize=1;strokeColor=none;fillColor=none;fontSize=17;" vertex="1" parent="1">
          <mxGeometry x="580" y="431.14" width="250" height="160" as="geometry" />
        </mxCell>
        <mxCell id="OMtnE_BQ5lBE1DZF3D4d-24" value="Carrier approves the request" style="text;html=1;align=left;verticalAlign=middle;resizable=0;points=[];autosize=1;strokeColor=none;fillColor=none;rounded=0;fontSize=17;" vertex="1" parent="1">
          <mxGeometry x="815" y="391.14" width="240" height="30" as="geometry" />
        </mxCell>
        <mxCell id="OMtnE_BQ5lBE1DZF3D4d-26" value="Carrier transports the artwork" style="text;html=1;align=left;verticalAlign=middle;resizable=0;points=[];autosize=1;strokeColor=none;fillColor=none;rounded=0;fontSize=17;" vertex="1" parent="1">
          <mxGeometry x="1055" y="391.14" width="240" height="30" as="geometry" />
        </mxCell>
        <mxCell id="OMtnE_BQ5lBE1DZF3D4d-27" value="Logger reports a temperature&lt;br style=&quot;font-size: 17px;&quot;&gt;or humidity violation if any occured" style="text;html=1;align=left;verticalAlign=middle;resizable=0;points=[];autosize=1;strokeColor=none;fillColor=none;rounded=0;fontSize=17;" vertex="1" parent="1">
          <mxGeometry x="1295" y="381.14" width="280" height="50" as="geometry" />
        </mxCell>
        <mxCell id="OMtnE_BQ5lBE1DZF3D4d-28" value="PATCH /artworks/id&lt;br style=&quot;font-size: 17px;&quot;&gt;{&lt;br style=&quot;font-size: 17px;&quot;&gt;&lt;span style=&quot;font-size: 17px;&quot;&gt;&lt;span style=&quot;white-space: pre; font-size: 17px;&quot;&gt;&amp;nbsp;&amp;nbsp;&amp;nbsp;&amp;nbsp;&lt;/span&gt;&lt;/span&gt;&quot;violationTimestamp&quot;:&amp;nbsp;1692022392&lt;br style=&quot;font-size: 17px;&quot;&gt;}" style="text;html=1;align=left;verticalAlign=middle;resizable=0;points=[];autosize=1;strokeColor=none;fillColor=none;fontSize=17;" vertex="1" parent="1">
          <mxGeometry x="1295" y="431.14" width="300" height="100" as="geometry" />
        </mxCell>
        <mxCell id="OMtnE_BQ5lBE1DZF3D4d-30" value="Artwork is delivered,&lt;br style=&quot;font-size: 17px;&quot;&gt;carrier requests status to be updated" style="text;html=1;align=left;verticalAlign=middle;resizable=0;points=[];autosize=1;strokeColor=none;fillColor=none;rounded=0;fontSize=17;" vertex="1" parent="1">
          <mxGeometry x="1590" y="381.14" width="300" height="50" as="geometry" />
        </mxCell>
        <mxCell id="OMtnE_BQ5lBE1DZF3D4d-36" style="edgeStyle=orthogonalEdgeStyle;rounded=0;orthogonalLoop=1;jettySize=auto;html=1;" edge="1" parent="1" source="OMtnE_BQ5lBE1DZF3D4d-32" target="OMtnE_BQ5lBE1DZF3D4d-4">
          <mxGeometry relative="1" as="geometry">
            <Array as="points">
              <mxPoint x="810" y="309.14" />
              <mxPoint x="810" y="309.14" />
            </Array>
          </mxGeometry>
        </mxCell>
        <mxCell id="OMtnE_BQ5lBE1DZF3D4d-32" value="" style="shape=mxgraph.signs.transportation.truck_1;html=1;pointerEvents=1;fillColor=default;strokeColor=default;verticalLabelPosition=bottom;verticalAlign=top;align=center;strokeWidth=2;shadow=0;flipH=1;" vertex="1" parent="1">
          <mxGeometry x="640" y="286.24" width="90.11" height="46.42" as="geometry" />
        </mxCell>
        <mxCell id="OMtnE_BQ5lBE1DZF3D4d-34" value="" style="sketch=0;pointerEvents=1;shadow=0;dashed=0;html=1;strokeColor=none;fillColor=#000000;labelPosition=center;verticalLabelPosition=bottom;verticalAlign=top;outlineConnect=0;align=center;shape=mxgraph.office.concepts.tasks;" vertex="1" parent="1">
          <mxGeometry x="664" y="290.14" width="15.38" height="20" as="geometry" />
        </mxCell>
        <mxCell id="OMtnE_BQ5lBE1DZF3D4d-38" style="edgeStyle=orthogonalEdgeStyle;rounded=0;orthogonalLoop=1;jettySize=auto;html=1;" edge="1" parent="1" source="IPLzQBMhlxklqPSGCdYf-4" target="OMtnE_BQ5lBE1DZF3D4d-6">
          <mxGeometry relative="1" as="geometry" />
        </mxCell>
        <mxCell id="OMtnE_BQ5lBE1DZF3D4d-52" style="edgeStyle=orthogonalEdgeStyle;rounded=0;orthogonalLoop=1;jettySize=auto;html=1;" edge="1" parent="1" source="OMtnE_BQ5lBE1DZF3D4d-41" target="OMtnE_BQ5lBE1DZF3D4d-44">
          <mxGeometry relative="1" as="geometry" />
        </mxCell>
        <mxCell id="OMtnE_BQ5lBE1DZF3D4d-41" value="" style="shape=mxgraph.signs.transportation.truck_1;html=1;pointerEvents=1;fillColor=default;strokeColor=default;verticalLabelPosition=bottom;verticalAlign=top;align=center;strokeWidth=2;shadow=0;flipH=1;" vertex="1" parent="1">
          <mxGeometry x="1673.9499999999998" y="290.14" width="90.11" height="46.42" as="geometry" />
        </mxCell>
        <mxCell id="OMtnE_BQ5lBE1DZF3D4d-42" value="" style="sketch=0;pointerEvents=1;shadow=0;dashed=0;html=1;strokeColor=none;fillColor=#000000;labelPosition=center;verticalLabelPosition=bottom;verticalAlign=top;outlineConnect=0;align=center;shape=mxgraph.office.concepts.tasks;" vertex="1" parent="1">
          <mxGeometry x="1697.9499999999998" y="294.65999999999997" width="15.38" height="20" as="geometry" />
        </mxCell>
        <mxCell id="OMtnE_BQ5lBE1DZF3D4d-43" value="PATCH /artworks/id&lt;br style=&quot;font-size: 17px;&quot;&gt;{&lt;br style=&quot;font-size: 17px;&quot;&gt;&lt;span style=&quot;white-space: pre; font-size: 17px;&quot;&gt;&#x9;&lt;/span&gt;&quot;status&quot;: {&amp;nbsp;&lt;br style=&quot;font-size: 17px;&quot;&gt;&lt;span style=&quot;white-space: pre; font-size: 17px;&quot;&gt;&#x9;&lt;/span&gt;&lt;span style=&quot;white-space: pre; font-size: 17px;&quot;&gt;&#x9;&lt;/span&gt;&quot;requestedStatus&quot;: &lt;br style=&quot;font-size: 17px;&quot;&gt;&lt;span style=&quot;white-space: pre; font-size: 17px;&quot;&gt;&#x9;&lt;/span&gt;&lt;span style=&quot;white-space: pre; font-size: 17px;&quot;&gt;&#x9;&lt;/span&gt;&lt;span style=&quot;white-space: pre; font-size: 17px;&quot;&gt;&#x9;&lt;/span&gt;&quot;IN_TRANSIT&quot;&lt;br style=&quot;font-size: 17px;&quot;&gt;&lt;span style=&quot;white-space: pre; font-size: 17px;&quot;&gt;&#x9;&lt;/span&gt;}&lt;br style=&quot;font-size: 17px;&quot;&gt;}" style="text;html=1;align=left;verticalAlign=middle;resizable=0;points=[];autosize=1;strokeColor=none;fillColor=none;fontSize=17;" vertex="1" parent="1">
          <mxGeometry x="1594" y="426.14" width="250" height="160" as="geometry" />
        </mxCell>
        <mxCell id="OMtnE_BQ5lBE1DZF3D4d-44" value="" style="sketch=0;pointerEvents=1;shadow=0;dashed=0;html=1;strokeColor=none;fillColor=#505050;labelPosition=center;verticalLabelPosition=bottom;verticalAlign=top;outlineConnect=0;align=center;shape=mxgraph.office.users.approver;" vertex="1" parent="1">
          <mxGeometry x="1980" y="285.65999999999997" width="59" height="55" as="geometry" />
        </mxCell>
        <mxCell id="OMtnE_BQ5lBE1DZF3D4d-45" value="recipient approves the request" style="text;html=1;align=left;verticalAlign=middle;resizable=0;points=[];autosize=1;strokeColor=none;fillColor=none;rounded=0;fontSize=17;" vertex="1" parent="1">
          <mxGeometry x="1900" y="391.14" width="250" height="30" as="geometry" />
        </mxCell>
        <mxCell id="OMtnE_BQ5lBE1DZF3D4d-46" value="PATCH /artworks/id&lt;br style=&quot;font-size: 17px;&quot;&gt;{&lt;br style=&quot;font-size: 17px;&quot;&gt;&lt;span style=&quot;white-space: pre; font-size: 17px;&quot;&gt;&#x9;&lt;/span&gt;&quot;status&quot;: {&amp;nbsp;&lt;br style=&quot;font-size: 17px;&quot;&gt;&lt;span style=&quot;white-space: pre; font-size: 17px;&quot;&gt;&#x9;&lt;/span&gt;&lt;span style=&quot;white-space: pre; font-size: 17px;&quot;&gt;&#x9;&lt;/span&gt;&quot;requestedStatus&quot;:&lt;br style=&quot;font-size: 17px;&quot;&gt;&lt;span style=&quot;white-space: pre; font-size: 17px;&quot;&gt;&#x9;&lt;/span&gt;&lt;span style=&quot;white-space: pre; font-size: 17px;&quot;&gt;&#x9;&lt;/span&gt;&lt;span style=&quot;white-space: pre; font-size: 17px;&quot;&gt;&#x9;&lt;/span&gt;&quot;IN_TRANSIT&quot;&lt;br style=&quot;font-size: 17px;&quot;&gt;&lt;span style=&quot;white-space: pre; font-size: 17px;&quot;&gt;&#x9;&lt;/span&gt;}&lt;br style=&quot;font-size: 17px;&quot;&gt;}" style="text;html=1;align=left;verticalAlign=middle;resizable=0;points=[];autosize=1;strokeColor=none;fillColor=none;fontSize=17;" vertex="1" parent="1">
          <mxGeometry x="1900" y="426.14" width="250" height="160" as="geometry" />
        </mxCell>
        <mxCell id="OMtnE_BQ5lBE1DZF3D4d-47" value="" style="endArrow=none;html=1;rounded=0;exitX=1.013;exitY=-0.008;exitDx=0;exitDy=0;exitPerimeter=0;" edge="1" parent="1" source="OMtnE_BQ5lBE1DZF3D4d-46">
          <mxGeometry width="50" height="50" relative="1" as="geometry">
            <mxPoint x="2060" y="428.14" as="sourcePoint" />
            <mxPoint x="280" y="428.14" as="targetPoint" />
          </mxGeometry>
        </mxCell>
        <mxCell id="OMtnE_BQ5lBE1DZF3D4d-54" value="PATCH /artworks/id&lt;br style=&quot;font-size: 17px;&quot;&gt;{&lt;br style=&quot;font-size: 17px;&quot;&gt;&lt;span style=&quot;white-space: pre; font-size: 17px;&quot;&gt;&#x9;&lt;/span&gt;&quot;status&quot;: {&amp;nbsp;&lt;br style=&quot;font-size: 17px;&quot;&gt;&lt;span style=&quot;white-space: pre; font-size: 17px;&quot;&gt;&#x9;&lt;/span&gt;&lt;span style=&quot;white-space: pre; font-size: 17px;&quot;&gt;&#x9;&lt;/span&gt;&quot;requestedStatus&quot;: &lt;br style=&quot;font-size: 17px;&quot;&gt;&lt;span style=&quot;white-space: pre; font-size: 17px;&quot;&gt;&#x9;&lt;/span&gt;&lt;span style=&quot;white-space: pre; font-size: 17px;&quot;&gt;&#x9;&lt;/span&gt;&lt;span style=&quot;white-space: pre; font-size: 17px;&quot;&gt;&#x9;&lt;/span&gt;&quot;IN_TRANSIT&quot;&lt;br style=&quot;font-size: 17px;&quot;&gt;&lt;span style=&quot;white-space: pre; font-size: 17px;&quot;&gt;&#x9;&lt;/span&gt;}&lt;br style=&quot;font-size: 17px;&quot;&gt;}" style="text;html=1;align=left;verticalAlign=middle;resizable=0;points=[];autosize=1;strokeColor=none;fillColor=none;fontSize=17;" vertex="1" parent="1">
          <mxGeometry x="820" y="426.14" width="250" height="160" as="geometry" />
        </mxCell>
        <mxCell id="OMtnE_BQ5lBE1DZF3D4d-55" value="" style="endArrow=none;html=1;rounded=0;" edge="1" parent="1">
          <mxGeometry width="50" height="50" relative="1" as="geometry">
            <mxPoint x="570" y="608.14" as="sourcePoint" />
            <mxPoint x="570" y="368.14" as="targetPoint" />
          </mxGeometry>
        </mxCell>
        <mxCell id="OMtnE_BQ5lBE1DZF3D4d-56" value="" style="endArrow=none;html=1;rounded=0;" edge="1" parent="1">
          <mxGeometry width="50" height="50" relative="1" as="geometry">
            <mxPoint x="810" y="608.14" as="sourcePoint" />
            <mxPoint x="810" y="368.14" as="targetPoint" />
          </mxGeometry>
        </mxCell>
        <mxCell id="OMtnE_BQ5lBE1DZF3D4d-57" value="" style="endArrow=none;html=1;rounded=0;" edge="1" parent="1">
          <mxGeometry width="50" height="50" relative="1" as="geometry">
            <mxPoint x="1050" y="608.14" as="sourcePoint" />
            <mxPoint x="1050" y="368.14" as="targetPoint" />
          </mxGeometry>
        </mxCell>
        <mxCell id="OMtnE_BQ5lBE1DZF3D4d-58" value="" style="endArrow=none;html=1;rounded=0;" edge="1" parent="1">
          <mxGeometry width="50" height="50" relative="1" as="geometry">
            <mxPoint x="1290" y="608.14" as="sourcePoint" />
            <mxPoint x="1290" y="368.14" as="targetPoint" />
          </mxGeometry>
        </mxCell>
        <mxCell id="OMtnE_BQ5lBE1DZF3D4d-59" value="" style="endArrow=none;html=1;rounded=0;" edge="1" parent="1">
          <mxGeometry width="50" height="50" relative="1" as="geometry">
            <mxPoint x="1580" y="608.14" as="sourcePoint" />
            <mxPoint x="1580" y="368.14" as="targetPoint" />
          </mxGeometry>
        </mxCell>
        <mxCell id="OMtnE_BQ5lBE1DZF3D4d-60" value="" style="endArrow=none;html=1;rounded=0;" edge="1" parent="1">
          <mxGeometry width="50" height="50" relative="1" as="geometry">
            <mxPoint x="1889" y="608.14" as="sourcePoint" />
            <mxPoint x="1888.82" y="368.14" as="targetPoint" />
          </mxGeometry>
        </mxCell>
        <mxCell id="OMtnE_BQ5lBE1DZF3D4d-61" value="..." style="text;html=1;align=center;verticalAlign=middle;resizable=0;points=[];autosize=1;strokeColor=none;fillColor=none;fontSize=17;fontStyle=1" vertex="1" parent="1">
          <mxGeometry x="1155" y="496.14" width="40" height="30" as="geometry" />
        </mxCell>
      </root>
    </mxGraphModel>
  </diagram>
</mxfile>
